<mxfile host="app.diagrams.net" agent="Mozilla/5.0 (Macintosh; Intel Mac OS X 10_15_7) AppleWebKit/537.36 (KHTML, like Gecko) Chrome/140.0.0.0 Safari/537.36" version="28.2.5">
  <diagram name="第 1 页" id="YtEtaBPnAqlrEqAmn6-p">
    <mxGraphModel dx="1018" dy="655" grid="1" gridSize="10" guides="1" tooltips="1" connect="1" arrows="1" fold="1" page="1" pageScale="1" pageWidth="827" pageHeight="1169" math="0" shadow="0">
      <root>
        <mxCell id="0" />
        <mxCell id="1" parent="0" />
        <mxCell id="FtnBUCDx0wFN6M4704JU-12" value="" style="edgeStyle=orthogonalEdgeStyle;rounded=0;orthogonalLoop=1;jettySize=auto;html=1;" edge="1" parent="1" source="FtnBUCDx0wFN6M4704JU-1" target="FtnBUCDx0wFN6M4704JU-11">
          <mxGeometry relative="1" as="geometry" />
        </mxCell>
        <mxCell id="FtnBUCDx0wFN6M4704JU-1" value="Actor" style="shape=umlActor;verticalLabelPosition=bottom;verticalAlign=top;html=1;outlineConnect=0;" vertex="1" parent="1">
          <mxGeometry x="60" y="135" width="30" height="60" as="geometry" />
        </mxCell>
        <mxCell id="FtnBUCDx0wFN6M4704JU-7" value="人群执行" style="shape=umlLifeline;whiteSpace=wrap;html=1;container=1;dropTarget=0;collapsible=0;recursiveResize=0;outlineConnect=0;portConstraint=eastwest;newEdgeStyle={&quot;curved&quot;:0,&quot;rounded&quot;:0};points=[[0,0,0,0,5],[0,1,0,0,-5],[1,0,0,0,5],[1,1,0,0,-5]];perimeter=rectanglePerimeter;targetShapes=umlLifeline;participant=label;" vertex="1" parent="1">
          <mxGeometry x="180" y="70" width="117.5" height="480" as="geometry" />
        </mxCell>
        <mxCell id="FtnBUCDx0wFN6M4704JU-25" value="" style="edgeStyle=orthogonalEdgeStyle;rounded=0;orthogonalLoop=1;jettySize=auto;html=1;" edge="1" parent="FtnBUCDx0wFN6M4704JU-7" source="FtnBUCDx0wFN6M4704JU-22" target="FtnBUCDx0wFN6M4704JU-24">
          <mxGeometry relative="1" as="geometry" />
        </mxCell>
        <mxCell id="FtnBUCDx0wFN6M4704JU-22" value="规则解析" style="whiteSpace=wrap;html=1;" vertex="1" parent="FtnBUCDx0wFN6M4704JU-7">
          <mxGeometry x="15" y="160" width="85" height="40" as="geometry" />
        </mxCell>
        <mxCell id="FtnBUCDx0wFN6M4704JU-33" value="" style="edgeStyle=orthogonalEdgeStyle;rounded=0;orthogonalLoop=1;jettySize=auto;html=1;" edge="1" parent="FtnBUCDx0wFN6M4704JU-7" source="FtnBUCDx0wFN6M4704JU-24" target="FtnBUCDx0wFN6M4704JU-32">
          <mxGeometry relative="1" as="geometry" />
        </mxCell>
        <mxCell id="FtnBUCDx0wFN6M4704JU-24" value="获取标签结果值" style="whiteSpace=wrap;html=1;" vertex="1" parent="FtnBUCDx0wFN6M4704JU-7">
          <mxGeometry x="10" y="240" width="95" height="40" as="geometry" />
        </mxCell>
        <mxCell id="FtnBUCDx0wFN6M4704JU-35" value="" style="edgeStyle=orthogonalEdgeStyle;rounded=0;orthogonalLoop=1;jettySize=auto;html=1;" edge="1" parent="FtnBUCDx0wFN6M4704JU-7" source="FtnBUCDx0wFN6M4704JU-32" target="FtnBUCDx0wFN6M4704JU-34">
          <mxGeometry relative="1" as="geometry" />
        </mxCell>
        <mxCell id="FtnBUCDx0wFN6M4704JU-32" value="组装标签结果" style="whiteSpace=wrap;html=1;" vertex="1" parent="FtnBUCDx0wFN6M4704JU-7">
          <mxGeometry x="6.25" y="320" width="102.5" height="40" as="geometry" />
        </mxCell>
        <mxCell id="FtnBUCDx0wFN6M4704JU-34" value="输出人群结果" style="whiteSpace=wrap;html=1;" vertex="1" parent="FtnBUCDx0wFN6M4704JU-7">
          <mxGeometry x="6.25" y="440" width="102.5" height="40" as="geometry" />
        </mxCell>
        <mxCell id="FtnBUCDx0wFN6M4704JU-23" value="" style="edgeStyle=orthogonalEdgeStyle;rounded=0;orthogonalLoop=1;jettySize=auto;html=1;" edge="1" parent="1" source="FtnBUCDx0wFN6M4704JU-11" target="FtnBUCDx0wFN6M4704JU-22">
          <mxGeometry relative="1" as="geometry" />
        </mxCell>
        <mxCell id="FtnBUCDx0wFN6M4704JU-11" value="校验通过" style="rhombus;whiteSpace=wrap;html=1;" vertex="1" parent="1">
          <mxGeometry x="192.5" y="140" width="90" height="50" as="geometry" />
        </mxCell>
        <mxCell id="FtnBUCDx0wFN6M4704JU-26" value="标签接口层" style="shape=umlLifeline;perimeter=lifelinePerimeter;whiteSpace=wrap;html=1;container=1;dropTarget=0;collapsible=0;recursiveResize=0;outlineConnect=0;portConstraint=eastwest;newEdgeStyle={&quot;curved&quot;:0,&quot;rounded&quot;:0};" vertex="1" parent="1">
          <mxGeometry x="390" y="70" width="100" height="600" as="geometry" />
        </mxCell>
        <mxCell id="FtnBUCDx0wFN6M4704JU-27" value="批量&lt;div&gt;获取&lt;/div&gt;&lt;div&gt;实时&lt;/div&gt;&lt;div&gt;标签&lt;/div&gt;&lt;div&gt;结果&lt;/div&gt;" style="html=1;points=[[0,0,0,0,5],[0,1,0,0,-5],[1,0,0,0,5],[1,1,0,0,-5]];perimeter=orthogonalPerimeter;outlineConnect=0;targetShapes=umlLifeline;portConstraint=eastwest;newEdgeStyle={&quot;curved&quot;:0,&quot;rounded&quot;:0};" vertex="1" parent="FtnBUCDx0wFN6M4704JU-26">
          <mxGeometry x="31.25" y="250" width="37.5" height="100" as="geometry" />
        </mxCell>
        <mxCell id="FtnBUCDx0wFN6M4704JU-28" value="调用标签结果获取接口" style="html=1;verticalAlign=bottom;startArrow=oval;endArrow=block;startSize=8;curved=0;rounded=0;entryX=0;entryY=0;entryDx=0;entryDy=5;" edge="1" target="FtnBUCDx0wFN6M4704JU-27" parent="1">
          <mxGeometry relative="1" as="geometry">
            <mxPoint x="290" y="320" as="sourcePoint" />
          </mxGeometry>
        </mxCell>
        <mxCell id="FtnBUCDx0wFN6M4704JU-30" value="标签服务层" style="shape=umlLifeline;perimeter=lifelinePerimeter;whiteSpace=wrap;html=1;container=1;dropTarget=0;collapsible=0;recursiveResize=0;outlineConnect=0;portConstraint=eastwest;newEdgeStyle={&quot;curved&quot;:0,&quot;rounded&quot;:0};" vertex="1" parent="1">
          <mxGeometry x="560" y="70" width="100" height="550" as="geometry" />
        </mxCell>
        <mxCell id="FtnBUCDx0wFN6M4704JU-31" value="return" style="html=1;verticalAlign=bottom;endArrow=open;dashed=1;endSize=8;curved=0;rounded=0;entryX=1;entryY=0.25;entryDx=0;entryDy=0;" edge="1" parent="1" target="FtnBUCDx0wFN6M4704JU-32">
          <mxGeometry relative="1" as="geometry">
            <mxPoint x="420" y="400" as="sourcePoint" />
            <mxPoint x="340" y="400" as="targetPoint" />
          </mxGeometry>
        </mxCell>
      </root>
    </mxGraphModel>
  </diagram>
</mxfile>
